# xmcd
#
# Track frame offsets:
#	150
#	7641
#	17837
#	45800
#	60444
#	90732
#	111380
#	131286
#	147671
#	168865
#	184728
#	198963
#	224082
#	231403
#	239220
#	247821
#	256440
#	270862
#
# Disc length: 4037 seconds
#
# Revision: 1
# Processed by: cddbd v1.4PL0 Copyright (c) Steve Scherf et al.
# Submitted via: audiograbber 1.81.02
#
DISCID=f40fc312
DTITLE=Los Zabaleta - En Concierto Vol. 1
DYEAR=1999
DGENRE=Rock n' Roll
TTITLE0=Obertura La Ciudad
TTITLE1=Esperandote
TTITLE2=Medley Red Junior Piensa/Al Pasar Esa Edad/Eso Eres
TTITLE3=No Sabras Mi Dolor
TTITLE4=Medley Elvis Estremecido/No Seas Cruel/Perro Sabueso
TTITLE5=El Molino Dejó de Girar
TTITLE6=Te Vas Quedando Sola
TTITLE7=Que Daría Yo
TTITLE8=Midley Gilbert Becaud Au Revoir/Et Maintenant
TTITLE9=Noelia
TTITLE10=Whole Lotta 'Shaking'
TTITLE11=Medley Red Juniors Solo He Quedado/No Soy Para Ti/A Tu Recuerdo
TTITLE12=No Me Abandones
TTITLE13=Al Final
TTITLE14=Recuerda Cuando
TTITLE15=Una Mujer Enamorada
TTITLE16=Oh! Carol
TTITLE17=Medley Bric-A-Brac Te Prometo Cambiar/Alma Joven/Pasan Sin Mirar/Mammy
EXTD=
EXTT0=
EXTT1=
EXTT2=
EXTT3=
EXTT4=
EXTT5=
EXTT6=
EXTT7=
EXTT8=
EXTT9=
EXTT10=
EXTT11=
EXTT12=
EXTT13=
EXTT14=
EXTT15=
EXTT16=
EXTT17=
PLAYORDER=
